<?xml version="1.0" encoding="utf-8"?>
<!-- Generated by Mocodo 4.3.2 -->
<svg width="820" height="279" viewBox="0 0 820 279" xmlns="http://www.w3.org/2000/svg">
<rect x="0" y="0" width="820" height="279" fill="#f5f5f5" stroke="none" stroke-width="0"/>

<!-- Association STOCKER -->
<g>
	<line x1="338" y1="68" x2="166" y2="68" stroke="#35978f" stroke-width="2"/>
	<line x1="53" y1="68" x2="166" y2="68" stroke="#35978f" stroke-width="2"/>
	<g>
		<path d="M189 43 a14 14 90 0 1 14 14 V68 h-74 V57 a14 14 90 0 1 14 -14" fill="#80cdc1" stroke="#80cdc1" stroke-width="0"/>
		<path d="M203 68 v11 a14 14 90 0 1 -14 14 H143 a14 14 90 0 1 -14 -14 V68 H74" fill="#c7eae5" stroke="#c7eae5" stroke-width="0"/>
		<rect x="129" y="43" width="74" height="50" fill="none" rx="14" stroke="#35978f" stroke-width="2"/>
		<line x1="129" y1="68" x2="203" y2="68" stroke="#35978f" stroke-width="1"/>
		<text x="137" y="60.75" fill="#000000" font-family="Verdana" font-size="12">STOCKER</text>
		<text x="136" y="85.8" fill="#000000" font-family="Verdana" font-size="12">quantite</text>
	</g>
	<text x="266" y="85" fill="#8c510a" font-family="Verdana" font-size="12">1,1</text>
	<text x="102" y="85" fill="#8c510a" font-family="Verdana" font-size="12">0,N</text>
</g>

<!-- Association POSSEDER -->
<g>
	<line x1="750" y1="68" x2="557" y2="68" stroke="#35978f" stroke-width="2"/>
	<line x1="338" y1="68" x2="557" y2="68" stroke="#35978f" stroke-width="2"/>
	<g>
		<path d="M584 43 a14 14 90 0 1 14 14 V68 h-82 V57 a14 14 90 0 1 14 -14" fill="#80cdc1" stroke="#80cdc1" stroke-width="0"/>
		<path d="M598 68 v11 a14 14 90 0 1 -14 14 H530 a14 14 90 0 1 -14 -14 V68 H82" fill="#c7eae5" stroke="#c7eae5" stroke-width="0"/>
		<rect x="516" y="43" width="82" height="50" fill="none" rx="14" stroke="#35978f" stroke-width="2"/>
		<line x1="516" y1="68" x2="598" y2="68" stroke="#35978f" stroke-width="1"/>
		<text x="524" y="60.75" fill="#000000" font-family="Verdana" font-size="12">POSSEDER</text>
	</g>
	<text x="673" y="85" fill="#8c510a" font-family="Verdana" font-size="12">0,N</text>
	<text x="389" y="60" fill="#8c510a" font-family="Verdana" font-size="12">1,1</text>
</g>

<!-- Association ACHETER_AMELIORATION -->
<g>
	<line x1="338" y1="68" x2="338" y2="211" stroke="#35978f" stroke-width="2"/>
	<line x1="166" y1="211" x2="338" y2="211" stroke="#35978f" stroke-width="2"/>
	<g>
		<path d="M411 186 a14 14 90 0 1 14 14 V211 h-174 V200 a14 14 90 0 1 14 -14" fill="#80cdc1" stroke="#80cdc1" stroke-width="0"/>
		<path d="M425 211 v11 a14 14 90 0 1 -14 14 H265 a14 14 90 0 1 -14 -14 V211 H174" fill="#c7eae5" stroke="#c7eae5" stroke-width="0"/>
		<rect x="251" y="186" width="174" height="50" fill="none" rx="14" stroke="#35978f" stroke-width="2"/>
		<line x1="251" y1="211" x2="425" y2="211" stroke="#35978f" stroke-width="1"/>
		<text x="258" y="203.75" fill="#000000" font-family="Verdana" font-size="12">ACHETER_AMELIORATION</text>
		<text x="258" y="228.8" fill="#000000" font-family="Verdana" font-size="12">date_achat</text>
	</g>
	<text x="312" y="136" fill="#8c510a" font-family="Verdana" font-size="12">1,1</text>
	<text x="224" y="228" fill="#8c510a" font-family="Verdana" font-size="12">0,N</text>
</g>

<!-- Association POSSEDER_INFRASTRUCTURE -->
<g>
	<line x1="338" y1="68" x2="557" y2="211" stroke="#35978f" stroke-width="2"/>
	<line x1="750" y1="211" x2="557" y2="211" stroke="#35978f" stroke-width="2"/>
	<g>
		<path d="M643 177 a14 14 90 0 1 14 14 V202 h-200 V191 a14 14 90 0 1 14 -14" fill="#80cdc1" stroke="#80cdc1" stroke-width="0"/>
		<path d="M657 202 v29 a14 14 90 0 1 -14 14 H471 a14 14 90 0 1 -14 -14 V202 H200" fill="#c7eae5" stroke="#c7eae5" stroke-width="0"/>
		<rect x="457" y="177" width="200" height="68" fill="none" rx="14" stroke="#35978f" stroke-width="2"/>
		<line x1="457" y1="202" x2="657" y2="202" stroke="#35978f" stroke-width="1"/>
		<text x="465" y="194.75" fill="#000000" font-family="Verdana" font-size="12">POSSEDER_INFRASTRUCTURE</text>
		<text x="464" y="219.8" fill="#000000" font-family="Verdana" font-size="12">quantite</text>
		<text x="464" y="236.8" fill="#000000" font-family="Verdana" font-size="12">niveau</text>
	</g>
	<text x="389" y="95.05" fill="#8c510a" font-family="Verdana" font-size="12">1,1</text>
	<text x="662" y="228" fill="#8c510a" font-family="Verdana" font-size="12">0,N</text>
</g>

<!-- Entity RESSOURCE -->
<g>
	<g>
		<rect x="9" y="26" width="88" height="25" fill="#dfc27d" stroke="none" stroke-width="0" opacity="1"/>
		<rect x="9" y="51" width="88" height="59" fill="#f6e8c3" stroke="none" stroke-width="0" opacity="1"/>
		<rect x="9" y="26" width="88" height="84" fill="none" stroke="#bf812d" stroke-width="2" opacity="1"/>
		<line x1="9" y1="51" x2="97" y2="51" stroke="#bf812d" stroke-width="1"/>
	</g>
	<text x="15" y="43.75" fill="#000000" font-family="Verdana" font-size="12">RESSOURCE</text>
	<text x="14" y="68.8" fill="#000000" font-family="Verdana" font-size="12">id_ressource</text>
	<line x1="14" y1="71" x2="92" y2="71" stroke="#000000" stroke-width="1"/>
	<text x="14" y="85.8" fill="#000000" font-family="Verdana" font-size="12">nom</text>
	<text x="14" y="102.8" fill="#000000" font-family="Verdana" font-size="12">description</text>
</g>

<!-- Entity PARTIE -->
<g>
	<g>
		<rect x="292" y="17" width="92" height="25" fill="#dfc27d" stroke="none" stroke-width="0" opacity="1"/>
		<rect x="292" y="42" width="92" height="77" fill="#f6e8c3" stroke="none" stroke-width="0" opacity="1"/>
		<rect x="292" y="17" width="92" height="102" fill="none" stroke="#bf812d" stroke-width="2" opacity="1"/>
		<line x1="292" y1="42" x2="384" y2="42" stroke="#bf812d" stroke-width="1"/>
	</g>
	<text x="316" y="34.75" fill="#000000" font-family="Verdana" font-size="12">PARTIE</text>
	<text x="297" y="59.8" fill="#000000" font-family="Verdana" font-size="12">id_partie</text>
	<line x1="297" y1="62" x2="351" y2="62" stroke="#000000" stroke-width="1"/>
	<text x="297" y="76.8" fill="#000000" font-family="Verdana" font-size="12">nom_club</text>
	<text x="297" y="93.8" fill="#000000" font-family="Verdana" font-size="12">niveau</text>
	<text x="297" y="110.8" fill="#000000" font-family="Verdana" font-size="12">dernier_login</text>
</g>

<!-- Entity JOUEUR -->
<g>
	<g>
		<rect x="700" y="9" width="100" height="25" fill="#dfc27d" stroke="none" stroke-width="0" opacity="1"/>
		<rect x="700" y="34" width="100" height="93" fill="#f6e8c3" stroke="none" stroke-width="0" opacity="1"/>
		<rect x="700" y="9" width="100" height="118" fill="none" stroke="#bf812d" stroke-width="2" opacity="1"/>
		<line x1="700" y1="34" x2="800" y2="34" stroke="#bf812d" stroke-width="1"/>
	</g>
	<text x="726" y="26.75" fill="#000000" font-family="Verdana" font-size="12">JOUEUR</text>
	<text x="705" y="51.8" fill="#000000" font-family="Verdana" font-size="12">id_joueur</text>
	<line x1="705" y1="54" x2="763" y2="54" stroke="#000000" stroke-width="1"/>
	<text x="705" y="68.8" fill="#000000" font-family="Verdana" font-size="12">pseudo</text>
	<text x="705" y="85.8" fill="#000000" font-family="Verdana" font-size="12">email</text>
	<text x="705" y="102.8" fill="#000000" font-family="Verdana" font-size="12">mot_de_passe</text>
	<text x="705" y="119.8" fill="#000000" font-family="Verdana" font-size="12">date_creation</text>
</g>

<!-- Entity AMELIORATION -->
<g>
	<g>
		<rect x="113" y="152" width="106" height="25" fill="#dfc27d" stroke="none" stroke-width="0" opacity="1"/>
		<rect x="113" y="177" width="106" height="93" fill="#f6e8c3" stroke="none" stroke-width="0" opacity="1"/>
		<rect x="113" y="152" width="106" height="118" fill="none" stroke="#bf812d" stroke-width="2" opacity="1"/>
		<line x1="113" y1="177" x2="219" y2="177" stroke="#bf812d" stroke-width="1"/>
	</g>
	<text x="118" y="169.75" fill="#000000" font-family="Verdana" font-size="12">AMELIORATION</text>
	<text x="118" y="194.8" fill="#000000" font-family="Verdana" font-size="12">id_amelioration</text>
	<line x1="118" y1="197" x2="213" y2="197" stroke="#000000" stroke-width="1"/>
	<text x="118" y="211.8" fill="#000000" font-family="Verdana" font-size="12">nom</text>
	<text x="118" y="228.8" fill="#000000" font-family="Verdana" font-size="12">cout</text>
	<text x="118" y="245.8" fill="#000000" font-family="Verdana" font-size="12">effet</text>
	<text x="118" y="262.8" fill="#000000" font-family="Verdana" font-size="12">type_cible</text>
</g>

<!-- Entity INFRASTRUCTURE -->
<g>
	<g>
		<rect x="689" y="152" width="122" height="25" fill="#dfc27d" stroke="none" stroke-width="0" opacity="1"/>
		<rect x="689" y="177" width="122" height="93" fill="#f6e8c3" stroke="none" stroke-width="0" opacity="1"/>
		<rect x="689" y="152" width="122" height="118" fill="none" stroke="#bf812d" stroke-width="2" opacity="1"/>
		<line x1="689" y1="177" x2="811" y2="177" stroke="#bf812d" stroke-width="1"/>
	</g>
	<text x="694" y="169.75" fill="#000000" font-family="Verdana" font-size="12">INFRASTRUCTURE</text>
	<text x="694" y="194.8" fill="#000000" font-family="Verdana" font-size="12">id_infrastructure</text>
	<line x1="694" y1="197" x2="795" y2="197" stroke="#000000" stroke-width="1"/>
	<text x="694" y="211.8" fill="#000000" font-family="Verdana" font-size="12">nom</text>
	<text x="694" y="228.8" fill="#000000" font-family="Verdana" font-size="12">cout_base</text>
	<text x="694" y="245.8" fill="#000000" font-family="Verdana" font-size="12">production_base</text>
	<text x="694" y="262.8" fill="#000000" font-family="Verdana" font-size="12">description</text>
</g>
</svg>